<?xml version="1.0" standalone="no"?>
<!DOCTYPE svg PUBLIC "-//W3C//DTD SVG 20010904//EN"
 "http://www.w3.org/TR/2001/REC-SVG-20010904/DTD/svg10.dtd">
<svg version="1.0" xmlns="http://www.w3.org/2000/svg"
 width="48.000000pt" height="48.000000pt" viewBox="0 0 48.000000 48.000000"
 preserveAspectRatio="xMidYMid meet">

<g transform="translate(0.000000,48.000000) scale(0.100000,-0.100000)"
fill="#000000" stroke="none">
<path d="M210 416 c-7 -19 -3 -40 15 -87 31 -77 31 -81 1 -73 -15 3 -42 -4
-75 -20 l-51 -26 0 -85 0 -85 53 0 c53 0 107 25 80 36 -7 3 -13 23 -13 45 0
33 5 41 30 54 39 20 40 20 40 -19 0 -21 -6 -36 -16 -40 -10 -4 -14 -16 -12
-38 l3 -33 68 -3 67 -3 0 41 c0 31 -4 40 -17 40 -16 0 -18 9 -15 73 3 67 1 77
-22 104 -14 17 -26 37 -26 44 0 8 -9 33 -20 57 -16 36 -23 42 -50 42 -23 0
-33 -6 -40 -24z m35 -188 c33 -15 32 -24 -7 -37 -24 -8 -41 -8 -67 0 l-34 12
34 18 c41 22 42 22 74 7z m102 -55 c-3 -2 -15 5 -27 17 -12 12 -20 23 -18 24
2 2 12 8 23 14 18 10 20 7 23 -20 2 -16 1 -32 -1 -35z m-147 -65 l0 -48 -40 0
-40 0 0 64 0 64 40 -15 c39 -16 40 -17 40 -65z m138 32 c11 -18 10 -20 -8 -20
-13 0 -20 7 -20 20 0 11 3 20 8 20 4 0 13 -9 20 -20z m42 -65 c0 -11 -12 -15
-45 -15 -33 0 -45 4 -45 15 0 11 12 15 45 15 33 0 45 -4 45 -15z"/>
</g>
</svg>
